<svg id="wyQ-soXuN" viewBox="0 0 300 80" height="80" width="300" style="width: 300px; height: 80px; position: absolute; top: 50%; left: 50%; z-index: 0; cursor: pointer; transform: translate(-50%, -50%) scale(0.556);"><defs id="SvgjsDefs1019"></defs><g id="SvgjsG1020" featurekey="symbolFeature-0" transform="matrix(1.6666666666666667,0,0,1.6666666666666667,0,0)" fill="#b8dff0"><g xmlns="http://www.w3.org/2000/svg"><path d="M47,20.2l-2.7-0.9c-0.5-0.2-0.8-0.5-1-1c-0.4-1.4-0.9-2.7-1.6-3.9c-0.2-0.4-0.3-0.9,0-1.4l1.2-2.5c0.3-0.6,0.2-1.3-0.3-1.7   l-3.4-3.4c-0.5-0.5-1.1-0.6-1.7-0.3L35,6.3c-0.4,0.2-1,0.2-1.4,0c-1.2-0.7-2.5-1.2-3.9-1.6c-0.5-0.1-0.9-0.5-1-1L27.8,1   c-0.2-0.6-0.8-1-1.4-1h-4.8c-0.6,0-1.2,0.4-1.4,1l-0.9,2.7c-0.2,0.5-0.5,0.8-1,1c-1.4,0.4-2.7,0.9-3.9,1.6c-0.4,0.2-0.9,0.3-1.4,0   L10.5,5C9.9,4.8,9.2,4.9,8.7,5.3L5.3,8.7C4.9,9.2,4.8,9.9,5,10.5L6.3,13c0.2,0.4,0.2,1,0,1.4c-0.7,1.2-1.2,2.5-1.6,3.9   c-0.1,0.5-0.5,0.9-1,1L1,20.2c-0.6,0.2-1,0.8-1,1.4v4.8c0,0.6,0.4,1.2,1,1.4l2.7,0.9c0.5,0.2,0.8,0.5,1,1c0.4,1.4,0.9,2.7,1.6,3.9   c0.2,0.4,0.3,0.9,0,1.4L5,37.5c-0.3,0.6-0.2,1.3,0.3,1.7l3.4,3.4c0.5,0.5,1.1,0.6,1.7,0.3l2.5-1.2c0.4-0.2,1-0.2,1.4,0   c1.2,0.7,2.5,1.2,3.9,1.6c0.5,0.1,0.9,0.5,1,1l0.9,2.7c0.2,0.6,0.8,1,1.4,1h4.8c0.6,0,1.2-0.4,1.4-1l0.9-2.7c0.2-0.5,0.5-0.8,1-1   c1.4-0.4,2.7-0.9,3.9-1.6c0.4-0.2,0.9-0.3,1.4,0l2.5,1.2c0.6,0.3,1.3,0.2,1.7-0.3l3.4-3.4c0.5-0.5,0.6-1.1,0.3-1.7L41.7,35   c-0.2-0.4-0.2-1,0-1.4c0.7-1.2,1.2-2.5,1.6-3.9c0.1-0.5,0.5-0.9,1-1l2.7-0.9c0.6-0.2,1-0.8,1-1.4v-4.8C48,21,47.6,20.4,47,20.2z    M24,38.4c-7.9,0-14.4-6.4-14.4-14.4S16.1,9.6,24,9.6c7.9,0,14.4,6.4,14.4,14.4S31.9,38.4,24,38.4z"></path><path d="M25.1,22.4L25.1,22.4L25,17.9c1.2,0.2,2.4,0.6,3.4,1.4l1.6-2.2c-1.6-1.1-3.2-1.7-5-1.8v-1.2h-1.5v1.2   c-1.5,0.1-2.8,0.6-3.8,1.4c-1,0.9-1.4,2-1.4,3.4c0,1.4,0.4,2.4,1.3,3.1c0.8,0.7,2.2,1.3,4,1.7v4.6c-1.4-0.2-2.8-0.9-4.1-2.1   l-1.7,2.1c1.7,1.5,3.7,2.4,5.9,2.6v1.7H25v-1.7c1.6-0.1,2.9-0.6,3.9-1.4c1-0.9,1.5-2,1.5-3.4c0-1.4-0.4-2.5-1.3-3.2   C28.3,23.4,26.9,22.8,25.1,22.4z M23.5,22c-0.9-0.3-1.5-0.6-1.8-0.9c-0.3-0.3-0.5-0.7-0.5-1.3c0-0.5,0.2-1,0.6-1.3   c0.4-0.4,1-0.6,1.7-0.6V22z M26.8,29c-0.4,0.4-1.1,0.6-1.8,0.7v-4.3c1,0.3,1.6,0.6,2,0.9c0.4,0.3,0.5,0.8,0.5,1.3   C27.5,28.1,27.3,28.6,26.8,29z"></path></g></g><g id="SvgjsG1021" featurekey="nameFeature-0" transform="matrix(1.9692792911363801,0,0,1.9692792911363801,99.44860044628504,-17.3468469625754)" fill="#3B82F6"><path d="M28 30.84 c0 4.2 -2.48 6.48 -3.72 7.4 c-3.64 2.68 -8.4 2.6 -9.6 2.6 c-4.12 0 -8.04 -0.68 -11.4 -3.2 c-1.28 -0.96 -2.04 -1.8 -3 -3.04 l6.84 -4.36 c0.6 0.96 0.96 1.4 1.36 1.72 c1.6 1.4 4.56 2 6.52 2 c2.52 0 4.28 -0.76 4.28 -2.16 c0 -0.32 -0.16 -0.56 -0.2 -0.68 c-0.2 -0.4 -0.52 -0.76 -1.36 -1.04 c-1 -0.36 -2.8 -0.6 -5.32 -1.12 c-3.88 -0.76 -5.96 -1.72 -7.32 -2.92 c-0.88 -0.76 -2.48 -2.64 -2.44 -5.72 c0 -0.76 0.04 -2.48 1.04 -4.28 c2.88 -5.28 10.36 -5.2 11.44 -5.2 c1.44 0 6.52 0.08 10.56 3.04 c0.88 0.64 1.4 1.2 2.16 1.96 l-5.64 4.68 c-0.36 -0.48 -0.56 -0.72 -0.8 -0.92 c-1.64 -1.52 -4.48 -1.96 -6.6 -1.96 c-0.2 0 -1.28 0 -2.12 0.36 c-0.16 0.08 -1.12 0.52 -1.12 1.48 c0 0.52 0.32 1 0.72 1.28 c0.72 0.44 2.4 0.76 3.16 0.88 c1 0.16 3.64 0.52 6.44 1.44 c1.76 0.56 6.12 2.12 6.12 7.76 z M55.08 40 l-9.4 0 l-4.48 -7.88 l-2.16 2.08 l0 5.8 l-8.24 0 l0 -28.24 l8.24 0 l0 13.44 l5.64 -5.92 l10.04 0 l-7.88 7.48 z M78.24 19.28 l-7.56 21.92 c-0.64 1.84 -1.36 3.72 -2.92 5 c-1.64 1.32 -3.24 1.28 -5.28 1.28 c-0.68 0 -1.4 0.04 -2.08 -0.04 l-2.28 -0.24 l0 -5.88 c0.8 0.04 1.56 0.12 2.36 0.12 c1.16 0 1.72 -0.24 1.72 -1 c0 -0.32 -0.32 -1.2 -0.64 -2.12 l-6.56 -19.04 l8.6 0 l2.96 13.52 s3.08 -13.28 3.12 -13.52 l8.56 0 z M101.83999999999999 31.119999999999997 l-14.44 0 s0 0.96 0.2 1.6 c0.28 0.8 1.08 2.32 3.28 2.28 c1.28 0 1.96 -0.44 2.36 -0.8 c0.84 -0.68 1.24 -1.6 1.4 -1.88 l6.76 2.84 c-0.2 0.32 -0.44 0.76 -1 1.4 c-1.44 1.68 -3.08 2.6 -3.8 2.96 c-1 0.48 -3.16 1.32 -6.12 1.32 c-1.72 0 -3.36 -0.24 -4.92 -0.88 c-4.28 -1.76 -6.56 -5.92 -6.56 -10.44 c0 -4.28 1.96 -6.92 3.16 -8.08 c2.96 -2.84 7.08 -3.04 8.24 -3.04 c1.4 0 5.64 0.2 8.64 3.44 c1 1.08 1.76 2.44 2.2 3.84 c0.56 1.8 0.6 3.56 0.6 5.44 z M93.47999999999999 26.759999999999998 c-0.04 -0.24 -0.04 -0.64 -0.2 -1.16 c-0.56 -1.72 -2.08 -1.96 -2.72 -1.96 c-0.64 0.04 -1.04 0.2 -1.28 0.32 c-1.52 0.68 -1.72 2.36 -1.8 2.8 l6 0 z"></path></g></svg>